<?xml version="1.0" ?><svg id="Layer_1" style="enable-background:new 0 0 74 74;" version="1.1" viewBox="0 0 74 74" xml:space="preserve" xmlns="http://www.w3.org/2000/svg" xmlns:xlink="http://www.w3.org/1999/xlink"><style type="text/css">
	.st0{fill:#2B3033;}
</style><g><path class="st0" d="M53.2,12.6h-3.3c-1.3-2.7-3.3-4.6-6-5.6c-0.4-3.4-3.3-6-6.8-6c-3.5,0-6.4,2.6-6.8,6c-2.7,1.1-4.7,3-6,5.6h-3.3   c-3.9,0-7.1,3.2-7.1,7.1v46.1c0,3.9,3.2,7.1,7.1,7.1h32.4c3.9,0,7.1-3.2,7.1-7.1V19.8C60.3,15.8,57.1,12.6,53.2,12.6z M32.7,10.4   c1-0.3,1.6-1.2,1.5-2.2c0-0.1,0-0.2,0-0.3C34.1,6.3,35.4,5,37,5c1.6,0,2.9,1.3,2.9,2.9c0,0.1,0,0.2,0,0.3c-0.2,1,0.5,2,1.5,2.2   c2.3,0.6,5,2,6,7.2H26.7C27.6,12.4,30.3,11,32.7,10.4z M56.3,65.9c0,1.7-1.4,3.1-3.1,3.1H20.8c-1.7,0-3.1-1.4-3.1-3.1V19.8   c0-1.7,1.4-3.1,3.1-3.1h2c-0.2,0.9-0.3,1.8-0.4,2.8c0,0.6,0.2,1.1,0.5,1.5c0.4,0.4,0.9,0.6,1.5,0.6h25.1c0.6,0,1.1-0.2,1.5-0.6   c0.4-0.4,0.6-1,0.5-1.5c-0.1-1-0.2-1.9-0.4-2.8h2c1.7,0,3.1,1.4,3.1,3.1V65.9z"/><path class="st0" d="M31.7,27.3l-4.6,4.6l-2.3-2.3c-0.8-0.8-2-0.8-2.8,0c-0.8,0.8-0.8,2,0,2.8l3.7,3.7c0.4,0.4,0.9,0.6,1.4,0.6   s1-0.2,1.4-0.6l6-6c0.8-0.8,0.8-2,0-2.8S32.5,26.5,31.7,27.3z"/><path class="st0" d="M50.6,31.4h-13c-1.1,0-2,0.9-2,2s0.9,2,2,2h13c1.1,0,2-0.9,2-2S51.7,31.4,50.6,31.4z"/><path class="st0" d="M22.9,50.9c0.4,0.4,0.9,0.6,1.4,0.6s1-0.2,1.4-0.6l2.1-2.1l2.1,2.1c0.4,0.4,0.9,0.6,1.4,0.6s1-0.2,1.4-0.6   c0.8-0.8,0.8-2,0-2.8L30.6,46l2.1-2.1c0.8-0.8,0.8-2,0-2.8s-2-0.8-2.8,0l-2.1,2.1l-2.1-2.1c-0.8-0.8-2-0.8-2.8,0s-0.8,2,0,2.8   L25,46l-2.1,2.1C22.1,48.8,22.1,50.1,22.9,50.9z"/><path class="st0" d="M50.6,44.7h-13c-1.1,0-2,0.9-2,2s0.9,2,2,2h13c1.1,0,2-0.9,2-2S51.7,44.7,50.6,44.7z"/><path class="st0" d="M31.7,54l-4.6,4.6l-2.3-2.3c-0.8-0.8-2-0.8-2.8,0s-0.8,2,0,2.8l3.7,3.7c0.4,0.4,0.9,0.6,1.4,0.6s1-0.2,1.4-0.6   l6-6c0.8-0.8,0.8-2,0-2.8S32.5,53.2,31.7,54z"/><path class="st0" d="M50.6,58.1h-13c-1.1,0-2,0.9-2,2s0.9,2,2,2h13c1.1,0,2-0.9,2-2S51.7,58.1,50.6,58.1z"/></g></svg>