<?xml version="1.0" ?><!DOCTYPE svg  PUBLIC '-//W3C//DTD SVG 1.1//EN'  'http://www.w3.org/Graphics/SVG/1.1/DTD/svg11.dtd'><svg height="32px" id="Layer_1" style="enable-background:new 0 0 32 32;" version="1.1" viewBox="0 0 32 32" width="32px" xml:space="preserve" xmlns="http://www.w3.org/2000/svg" xmlns:xlink="http://www.w3.org/1999/xlink"><path d="M29.438,14L26,3.703C25.578,2.078,24.375,2,24,2H8C7.625,2,6.422,2.078,6,3.703L2.563,14C2.172,15.047,2,15.688,2,16v12  c0,1.094,0.875,2,2,2h24c1.125,0,2-0.906,2-2V16C30,15.688,29.828,15.047,29.438,14z M9.447,6h13.105l2.666,8H20  c0,2.209-1.791,4-4,4s-4-1.791-4-4H6.781L9.447,6z M26,26H6v-8h3.079c1.384,2.389,3.962,4,6.921,4s5.537-1.611,6.921-4H26V26z   M21.109,8H10.891l-1.335,4h12.889L21.109,8z"/></svg>